<svg xmlns="http://www.w3.org/2000/svg" viewBox="0 0 512 512" role="img" aria-label="Tiko, kiếm sĩ ốc đảo, minh họa tạm">
<defs><radialGradient id="bg"><stop stop-color="#57644d"/><stop offset="1" stop-color="#0d181b"/></radialGradient><linearGradient id="cape"><stop stop-color="#b59c69"/><stop offset=".5" stop-color="#635a43"/><stop offset="1" stop-color="#302f2b"/></linearGradient><linearGradient id="steel"><stop stop-color="#fbefd1"/><stop offset=".5" stop-color="#bdd5c7"/><stop offset="1" stop-color="#456b59"/></linearGradient></defs>
<rect width="512" height="512" fill="url(#bg)"/><circle cx="255" cy="245" r="204" fill="#b7bd7630"/><circle cx="255" cy="245" r="168" fill="none" stroke="#d2bf815c" stroke-width="4" stroke-dasharray="4 19"/>
<path d="M96 512Q95 387 174 325L334 325Q415 393 420 512Z" fill="url(#cape)" stroke="#ddbf87" stroke-width="6"/><path d="M117 512L162 354L214 476L256 492L306 469L350 354L397 512Z" fill="#344b40"/>
<path d="M156 267Q153 128 253 120Q359 122 358 256L349 333L167 332Z" fill="#8e7f5f" stroke="#cfc19a" stroke-width="5"/><path d="M190 225Q196 154 256 155Q320 162 329 223L318 299Q297 341 254 342Q211 338 192 294Z" fill="#a57756"/>
<path d="M189 206Q179 160 203 142Q251 105 318 149L342 218Q299 208 281 182Q246 223 189 206Z" fill="#333d35"/>
<path d="M202 243L238 249M277 249L313 243" stroke="#34402f" stroke-width="6" stroke-linecap="round"/><path d="M238 294Q255 304 274 293" stroke="#624532" stroke-width="4" fill="none"/>
<path d="M176 333L254 390L332 333" stroke="#d9c58d" stroke-width="8" fill="none"/><path d="M221 362L254 398L286 361" fill="#264a3b" stroke="#c8b270" stroke-width="5"/>
<path d="M368 449Q405 306 438 170Q459 153 456 190Q448 347 387 455Z" fill="url(#steel)" stroke="#e8ddbb" stroke-width="4"/><path d="M354 446L415 460" stroke="#d1af68" stroke-width="12" stroke-linecap="round"/><path d="M366 460L353 504" stroke="#6d4935" stroke-width="18" stroke-linecap="round"/>
<text x="256" y="492" font-family="serif" font-size="28" fill="#f2d9a6" text-anchor="middle" font-weight="bold" stroke="#24251d" stroke-width="3" paint-order="stroke">TIKO</text>
</svg>